<svg width="26" height="26" viewBox="0 0 26 26" fill="none" xmlns="http://www.w3.org/2000/svg">
<path d="M13 25H12.25V22.6H11.35H10.3333L5 19L2.33333 15.4V14.2M2.33333 14.2V13L1 11.8V10M2.33333 14.2L13 21.4V17.8M13 17.8L1 10M13 17.8V14.2M1 10V8.2L1.66667 7M13 14.2L1.66667 7M13 14.2V10.6M1.66667 7L2.33333 5.8L3.66667 4.6L6.33333 2.8M13 10.6V2.2H11.6667L10.3333 1H9L6.33333 2.8M13 10.6L6.33333 2.8" stroke="#292A2E" stroke-width="0.3"/>
<path d="M13 25H13.75V22.6H15.6667L21 19L23.6667 15.4V14.2M13 21.4L23.6667 14.2M13 21.4V17.8M13 21.4V22.6M23.6667 14.2V13L25 11.8V10M13 17.8L25 10M13 17.8V14.2M25 10V8.2L24.3333 7M13 14.2L24.3333 7M13 14.2V10.6M24.3333 7L23.6667 5.8L22.3333 4.6L19.6667 2.8M13 10.6V2.2H14.3333L15.6667 1H17L19.6667 2.8M13 10.6L19.6667 2.8" stroke="#292A2E" stroke-width="0.3"/>
</svg>
