<svg width="26" height="26" viewBox="0 0 26 26" fill="none" xmlns="http://www.w3.org/2000/svg">
<path d="M13 25H12.4V22.6H10.9L8.2 23.2188L4 21.145M10.6 2.92563L11.2 3.22188L12.1 2.7775L12.85 1H13V5.59188V6.77688V7.96188V9.14688V10.3319V11.5169V11.665M10.6 2.92563V4.40688L9.4 4.11063M10.6 2.92563L13 11.665M9.4 4.11063V5.59188L8.2 5.29563M9.4 4.11063L13 12.2575M8.2 5.29563V6.77688L7 6.48063M8.2 5.29563L13 12.85M7 6.48063V7.96188L5.8 7.66563V9.14688L4.6 8.85063M7 6.48063L13 13.7388M4.6 8.85063V10.3319L3.4 10.0356M4.6 8.85063L13 15.22M3.4 10.0356V11.5169L2.2 11.2206M3.4 10.0356L13 15.8125M2.2 11.2206V12.7019H1M2.2 11.2206L13 16.405M1 12.7019L1.6 13.8869H1M1 12.7019L13 16.9975M1.15 15.22H1.6L1 13.8869M1.15 15.22L1.75 16.405H1.15M1.15 15.22L13 18.1825M1.6 17.59H2.2L1.15 16.405M1.6 17.59L2.8 18.775H2.2M1.6 17.59L13 19.3675M2.2 18.775L3.4 19.96H2.8M2.2 18.775L13 19.96M2.8 19.96L4 21.145M2.8 19.96L13 20.5525M4 21.145H13M1.15 16.405L13 18.775M13 15.22V15.8125M13 15.22V14.6275M13 16.9975V17.59M13 16.9975V16.405M13 20.5525V21.145M13 20.5525V19.96M13 21.145V21.2931V22.6M13 19.96V19.5156V19.3675M13 19.3675V18.775M13 18.775V18.3306V18.1825M13 18.1825V17.59M1 13.8869L13 17.59M13 16.405V15.8125M5.65 7.66563L13 14.6275M13 14.6275V13.7388M13 13.7388V13.4425V12.85M13 12.85V12.2575M13 12.2575V11.665" stroke="#292A2E" stroke-width="0.3"/>
<path d="M13 25H13.6V22.6H15.1L17.8 23.2188L22 21.145M15.4 2.92562L14.8 3.22187L13.9 2.7775L13.15 1H13V5.59187V6.77687V7.96187V9.14687V10.3319V11.5169V11.665M15.4 2.92562V4.40687L16.6 4.11062M15.4 2.92562L13 11.665M16.6 4.11062V5.59187L17.8 5.29562M16.6 4.11062L13 12.2575M17.8 5.29562V6.77687L19 6.48062M17.8 5.29562L13 12.85M19 6.48062V7.96187L20.2 7.66562V9.14687L21.4 8.85062M19 6.48062L13 13.7387M21.4 8.85062V10.3319L22.6 10.0356M21.4 8.85062L13 15.22M22.6 10.0356V11.5169L23.8 11.2206M22.6 10.0356L13 15.8125M23.8 11.2206V12.7019H25M23.8 11.2206L13 16.405M25 12.7019L24.4 13.8869H25M25 12.7019L13 16.9975M24.85 15.22H24.4L25 13.8869M24.85 15.22L24.25 16.405H24.85M24.85 15.22L13 18.1825M24.4 17.59H23.8L24.85 16.405M24.4 17.59L23.2 18.775H23.8M24.4 17.59L13 19.3675M23.8 18.775L22.6 19.96H23.2M23.8 18.775L13 19.96M23.2 19.96L22 21.145M23.2 19.96L13 20.5525M22 21.145H13M24.85 16.405L13 18.775M13 15.22V15.8125M13 15.22V14.6275M13 16.9975V17.59M13 16.9975V16.405M13 20.5525V21.145M13 20.5525V19.96M13 21.2931V21.145M13 19.96V19.5156V19.3675M13 19.3675V18.775M13 18.775V18.3306V18.1825M13 18.1825V17.59M25 13.8869L13 17.59M13 16.405V15.8125M20.35 7.66562L13 14.6275M13 14.6275V13.7387M13 13.7387V13.4425V12.85M13 12.85V12.2575M13 12.2575V11.665" stroke="#292A2E" stroke-width="0.3"/>
</svg>
