<svg width="26" height="26" viewBox="0 0 26 26" fill="none" xmlns="http://www.w3.org/2000/svg">
<path d="M13 25H12.4V22.6L5.8 21.4H4.6L2.8 20.2H3.4L1.6 19H2.2L1 17.8V16.6L1.6 17.2H2.2L1.6 15.4M1.6 15.4H2.8L2.2 13H3.4L2.8 11.8M1.6 15.4L13 22M2.8 11.8H3.4V10.6L4 11.2H4.6V9.7L4 8.2M2.8 11.8L13 19M4 8.2L4.9 8.8H5.8V7L7 7.6V5.8M4 8.2L13 15.4M7 5.8L8.2 6.4H9.4L8.2 4.6H9.4L9.1 3.4M7 5.8L13 10.6M9.1 3.4H11.5L12.85 1H13V7M9.1 3.4L13 7M13 22V19M13 22V22.6M13 19V17.8V15.4M13 15.4V10.6M13 10.6V7" stroke="#292A2E" stroke-width="0.3"/>
<path d="M13 25H13.6V22.6L20.2 21.4H21.4L23.2 20.2H22.6L24.4 19H23.8L25 17.8V16.6L24.4 17.2H23.8L24.4 15.4M24.4 15.4H23.2L23.8 13H22.6L23.2 11.8M24.4 15.4L13 22V19M23.2 11.8H22.6V10.6L22 11.2H21.4V9.7L22 8.2M23.2 11.8L13 19M22 8.2L21.1 8.8H20.2V7L19 7.6V5.8M22 8.2L13 15.4M19 5.8L17.8 6.4H16.6L17.8 4.6H16.6L16.9 3.4M19 5.8L13 10.6M16.9 3.4H14.5L13.15 1H13V7M16.9 3.4L13 7M13 19V17.8V15.4M13 15.4V10.6M13 10.6V7" stroke="#292A2E" stroke-width="0.3"/>
</svg>
