<svg width="26" height="26" viewBox="0 0 26 26" fill="none" xmlns="http://www.w3.org/2000/svg">
<path d="M13 25H12.25V22.6L7.75 21.25L3.4 18.1L1.6 15.4L1.3 14.2M13 22.6V21.4M13 21.4V1H12.85L8.515 3.04M13 21.4L1.3 14.2M1.3 14.2L1 13L1.65455 10.8182M13 17.8L1.65455 10.8182M13 14.2L2.90588 7.98823M13 10.6L4.99926 5.67647M13 5.8L8.515 3.04M8.515 3.04L7.75 3.4L4.99926 5.67647M4.99926 5.67647L3.4 7L2.90588 7.98823M2.90588 7.98823L1.9 10L1.65455 10.8182" stroke="#292A2E" stroke-width="0.3"/>
<path d="M13 25H13.75V22.6L18.25 21.25L22.6 18.1L24.4 15.4L24.7 14.2M13 22.6V21.4M13 21.4V1H13.15L17.485 3.04M13 21.4L24.7 14.2M24.7 14.2L25 13L24.3455 10.8182M13 17.8L24.3455 10.8182M13 14.2L23.0941 7.98823M13 10.6L21.0007 5.67647M13 5.8L17.485 3.04M17.485 3.04L18.25 3.4L21.0007 5.67647M21.0007 5.67647L22.6 7L23.0941 7.98823M23.0941 7.98823L24.1 10L24.3455 10.8182" stroke="#292A2E" stroke-width="0.3"/>
</svg>
