<svg width="26" height="26" viewBox="0 0 26 26" fill="none" xmlns="http://www.w3.org/2000/svg">
<path d="M13 25H12.25V22.6L6.1 20.5L5.8 20.2V19.3L6.1 19L7.9 18.7L8.2 18.4V18.1L7.9 17.8L3.4 16L1.6 15.4L1 14.2V13L1.6 12.1L2.2 11.8H3.4L7.9 12.4L8.2 12.1L7.9 10.9L3.7 8.5L3.4 8.2L2.8 7.3V6.4V5.8L3.4 4.6L3.7 4.3H4L8.2 4.75L8.8 4.6V4.3L7.75 3.4L7.6 3.1V1.9L7.9 1.6H9.4L10.9 3.1H11.2L11.5 2.8L11.8 1.3L12.4 1H13V8.2M13 22.6V21.4M13 21.4L7 19.75M13 21.4V17.8M13 17.8L2.2 13.6M13 17.8V13M13 13L4 6.4M13 13V8.2M13 8.2L8.8 2.5" stroke="#292A2E" stroke-width="0.3"/>
<path d="M13 25H13.75V22.6L19.9 20.5L20.2 20.2V19.3L19.9 19L18.1 18.7L17.8 18.4V18.1L18.1 17.8L22.6 16L24.4 15.4L25 14.2V13L24.4 12.1L23.8 11.8H22.6L18.1 12.4L17.8 12.1L18.1 10.9L22.3 8.5L22.6 8.2L23.2 7.3V6.4V5.8L22.6 4.6L22.3 4.3H22L17.8 4.75L17.2 4.6V4.3L18.25 3.4L18.4 3.1V1.9L18.1 1.6H16.6L15.1 3.1H14.8L14.5 2.8L14.2 1.3L13.6 1H13V8.2M13 22.6V21.4M13 21.4L19 19.75M13 21.4V17.8M13 17.8L23.8 13.6M13 17.8V13M13 13L22 6.4M13 13V8.2M13 8.2L17.2 2.5" stroke="#292A2E" stroke-width="0.3"/>
</svg>
