<svg width="26" height="26" viewBox="0 0 26 26" fill="none" xmlns="http://www.w3.org/2000/svg">
<path d="M13 25H12.4V19.6H11.5L7.6 21.4L8.8 19.6L5.2 20.2L5.8 19.6L4 19.3L4.6 19L1.3 18.1L1 17.8L4 17.2L3.4 16.6L8.2 17.8L5.8 16L8.2 16.6L12.4 18.4L11.2 14.2L5.8 13.6L8.2 13L4.6 11.8L5.8 11.2L2.8 8.8L5.8 9.4V8.8L12.4 13.6L10.6 5.8L12.4 7.6L11.5 2.8L12.1 3.4L12.7 1H13" stroke="#292A2E" stroke-width="0.3"/>
<path d="M13 25H13.6V19.6H14.5L18.4 21.4L17.2 19.6L20.8 20.2L20.2 19.6L22 19.3L21.4 19L24.7 18.1L25 17.8L22 17.2L22.6 16.6L17.8 17.8L20.2 16L17.8 16.6L13.6 18.4L14.8 14.2L20.2 13.6L17.8 13L21.4 11.8L20.2 11.2L23.2 8.8L20.2 9.4V8.8L13.6 13.6L15.4 5.8L13.6 7.6L14.5 2.8L13.9 3.4L13.3 1H13" stroke="#292A2E" stroke-width="0.3"/>
</svg>
