<svg width="26" height="26" viewBox="0 0 26 26" fill="none" xmlns="http://www.w3.org/2000/svg">
<path d="M13 25H12.25V22.6L11.8 23.35L11.5 24.1L11.2 24.25L10.9 24.1L10.6 24.25L10.3 24.1L10 24.25L9.7 24.1L9.4 24.25L9.1 24.1L8.8 24.25L8.5 24.1L8.2 24.25L7.9 23.95H7.45L7.3 23.65L6.85 23.5L6.7 23.2H6.4L6.1 22.9H5.8L5.5 22.6H5.2L4.9 22.3H4.6L4.3 22H4L3.85 21.7L3.55 21.55V21.25L3.25 20.95M3.25 20.95V20.65L3.1 20.35V20.05L2.8 19.75V19.45L2.5 19V18.7L2.35 18.4V18.1L2.05 17.8V17.5L1.9 17.2V16.9L1.6 16.6M3.25 20.95L13 21.4M1.6 16.6V16.3L1.45 16V15.4L1.3 14.8V13.9L1 13L1.3 12.1V11.35M1.6 16.6L13 19M13 21.4V19M13 21.4V22.6M13 19V16M13 16V13M13 16L1.3 11.35M13 13V10M13 13L2.65 6.925M13 7V1H12.7L12.4 1.3L12.1 1.75L11.35 2.2L10.6 2.5H10L9.4 2.65L8.95 3.1H8.35L7.9 3.55L7.15 3.7L6.7 4L6.1 4.15L5.95 4.375M13 7L9.1 3.1M13 7V10M13 10L5.95 4.375M5.95 4.375L5.8 4.6L5.2 4.9L4.75 5.35L4.3 5.5L4 5.8H3.7L3.55 6.1L3.1 6.4L2.8 6.85L2.65 6.925M2.65 6.925L2.5 7V7.3L2.2 8.2L1.9 8.65V9.4L1.6 10V10.3V10.6L1.3 11.2V11.35" stroke="#292A2E" stroke-width="0.3"/>
<path d="M13 25H13.75V22.6L14.2 23.35L14.5 24.1L14.8 24.25L15.1 24.1L15.4 24.25L15.7 24.1L16 24.25L16.3 24.1L16.6 24.25L16.9 24.1L17.2 24.25L17.5 24.1L17.8 24.25L18.1 23.95H18.55L18.7 23.65L19.15 23.5L19.3 23.2H19.6L19.9 22.9H20.2L20.5 22.6H20.8L21.1 22.3H21.4L21.7 22H22L22.15 21.7L22.45 21.55V21.25L22.75 20.95M22.75 20.95V20.65L22.9 20.35V20.05L23.2 19.75V19.45L23.5 19V18.7L23.65 18.4V18.1L23.95 17.8V17.5L24.1 17.2V16.9L24.4 16.6M22.75 20.95L13 21.4V19M24.4 16.6V16.3L24.55 16V15.4L24.7 14.8V13.9L25 13L24.7 12.1V11.35M24.4 16.6L13 19M13 19V16M13 16V13M13 16L24.7 11.35M13 13V10M13 13L23.35 6.925M13 7V1H13.3L13.6 1.3L13.9 1.75L14.65 2.2L15.4 2.5H16L16.6 2.65L17.05 3.1H17.65L18.1 3.55L18.85 3.7L19.3 4L19.9 4.15L20.05 4.375M13 7L16.9 3.1M13 7V10M13 10L20.05 4.375M20.05 4.375L20.2 4.6L20.8 4.9L21.25 5.35L21.7 5.5L22 5.8H22.3L22.45 6.1L22.9 6.4L23.2 6.85L23.35 6.925M23.35 6.925L23.5 7V7.3L23.8 8.2L24.1 8.65V9.4L24.4 10V10.3V10.6L24.7 11.2V11.35" stroke="#292A2E" stroke-width="0.3"/>
</svg>
