<svg width="26" height="26" viewBox="0 0 26 26" fill="none" xmlns="http://www.w3.org/2000/svg">
<path d="M13 25H12.25V20.2L11.2 19.3L7.45 21.85L8.35 19.6L10.45 19L8.8 17.8L5.2 19.9L6.1 18.1L7.9 17.2L6.7 16.9L2.65 19L3.4 17.5L5.8 16.6L2.65 16L1 13.6463V13L5.8 16L4.9 12.7L6.4 14.2L6.85 16L7.15 16.3L7.75 16.45L6.7 12.85L8.2 14.2L8.8 16.75L10 17.5L8.95 13.6463L10 14.65L10.9 17.8L12.25 19V13.3L10.9 12.55L8.8 12.7L8.05 12.1L10 11.95L9.1 11.5L7.3 11.65L5.95 10.9H8.2L7.3 10L6.7 10.3L4.9 9.7L6.1 9.4L4.3 8.2L4 7.52154V7H5.05L6.7 9.1L6.4 7.45L6.7 6.7L7.6 9.4L8.8 10.6L8.05 8.65V7L8.35 7.15L9.4 10.6L10.9 11.5L10 9.85L10.45 8.2L11.8 11.8L12.25 12.25V7M12.25 7L12.1 6.7L11.8 6.4L11.95 6.1L11.8 5.8L11.95 5.5L11.8 5.2L11.95 4.9L11.8 4.6L11.95 4.3L11.8 4L11.95 3.7L11.8 3.4L11.95 3.1L11.8 2.8L11.95 2.5L11.8 2.2L11.95 1.9L11.8 1.6L11.95 1.3L12.25 1.15H12.55L12.7 1H13M12.25 7L12.7 6.7H13" stroke="#292A2E" stroke-width="0.3"/>
<path d="M13 25H13.75V20.2L14.8 19.3L18.55 21.85L17.65 19.6L15.55 19L17.2 17.8L20.8 19.9L19.9 18.1L18.1 17.2L19.3 16.9L23.35 19L22.6 17.5L20.2 16.6L23.35 16L25 13.6463V13L20.2 16L21.1 12.7L19.6 14.2L19.15 16L18.85 16.3L18.25 16.45L19.3 12.85L17.8 14.2L17.2 16.75L16 17.5L17.05 13.6463L16 14.65L15.1 17.8L13.75 19V13.3L15.1 12.55L17.2 12.7L17.95 12.1L16 11.95L16.9 11.5L18.7 11.65L20.05 10.9H17.8L18.7 10L19.3 10.3L21.1 9.7L19.9 9.4L21.7 8.2L22 7.52154V7H20.95L19.3 9.1L19.6 7.45L19.3 6.7L18.4 9.4L17.2 10.6L17.95 8.65V7L17.65 7.15L16.6 10.6L15.1 11.5L16 9.85L15.55 8.2L14.2 11.8L13.75 12.25V7M13.75 7L13.9 6.7L14.2 6.4L14.05 6.1L14.2 5.8L14.05 5.5L14.2 5.2L14.05 4.9L14.2 4.6L14.05 4.3L14.2 4L14.05 3.7L14.2 3.4L14.05 3.1L14.2 2.8L14.05 2.5L14.2 2.2L14.05 1.9L14.2 1.6L14.05 1.3L13.75 1.15H13.45L13.3 1H13M13.75 7L13.3 6.7H13" stroke="#292A2E" stroke-width="0.3"/>
</svg>
