<svg width="25" height="26" viewBox="0 0 25 26" fill="none" xmlns="http://www.w3.org/2000/svg">
<path d="M12.6016 25H6.60156L6.15156 21.85L0.601562 19L3.90156 19.75L2.10156 18.25L0.601562 13.15L3.45156 16L0.601562 6.85L3.90156 10.45L5.40156 14.65L6.60156 1L9.00156 17.05L9.60156 5.35L11.2516 16L12.4516 1H12.6016" stroke="#292A2E" stroke-width="0.32"/>
<path d="M12.6016 25H18.6016L19.0516 21.85L24.6016 19L21.3016 19.75L23.1016 18.25L24.6016 13.15L21.7516 16L24.6016 6.85L21.3016 10.45L19.8016 14.65L18.6016 1L16.2016 17.05L15.6016 5.35L13.9516 16L12.7516 1H12.6016" stroke="#292A2E" stroke-width="0.32"/>
</svg>
