<svg width="26" height="26" viewBox="0 0 26 26" fill="none" xmlns="http://www.w3.org/2000/svg">
<path d="M13 25H12.2593V22.6V22.3L11.3704 21.7M13 19V17.5M11.3704 21.1L12.2593 21.7V21.4V19L9.29631 17.8L7.22224 16L5.88891 12.85M11.3704 21.1L10.7778 19.75L10.4815 19.9L10.1852 19.45L9.88886 19.6L9.59257 19.3L9.29631 19.45L8.99998 19.15L8.70368 19.3L8.40739 19L8.11109 19.15L7.81479 18.85L7.5185 19L7.2222 18.7L6.92591 18.85L6.62961 18.55L6.33332 18.7L6.03702 18.4L5.74073 18.55L5.44443 18.25L5.14814 18.4L4.85184 18.1L4.55555 18.25L4.25925 17.95L3.96295 18.1L3.66666 17.8L3.37036 17.95L3.07407 17.65L2.77777 17.8L2.48148 17.5L2.18518 17.65L1.88889 17.35L1.59259 17.5H1.29633L1 17.8L1.2963 18.1L1 18.4L1.2963 18.7L1 19L1.29633 19.15V19.45H1.59259L1.88889 19.75L2.18518 19.6L2.48148 19.9L2.77777 19.75L3.07407 20.05L3.37036 19.9L3.66666 20.2L3.96295 20.05L4.25925 20.35L4.55555 20.2L4.85184 20.5L5.14814 20.35L5.44443 20.65L5.74073 20.5L6.03702 20.8L6.33332 20.65L6.62961 20.95L6.92591 20.8L7.2222 21.1L7.5185 20.95L7.81479 21.25L8.11109 21.1L8.40739 21.4L8.70368 21.25L8.99998 21.55L9.29627 21.4L9.59257 21.7L9.88886 21.55L10.1852 21.85L10.4815 21.7L10.7778 22L11.3704 21.7M11.3704 21.1V21.7M5.44447 9.25V10V10.9L5.88891 12.85M5.44447 9.25V8.5L6.18521 7L6.70372 6.175M5.44447 9.25L9.8889 13.3L13 14.5M5.88891 12.85L9.5926 16L13 17.5M9.14816 4L7.22224 5.35L6.70372 6.175M9.14816 4L10.1852 3.25L11.3088 2.25459M9.14816 4L11.0741 7L13 8.5M13 17.5V14.5M13 14.5V11.5M13 11.5V8.5M13 11.5L10.1852 10.3L6.70372 6.175M13 8.5V5.5M13 5.5V1H12.8519L11.3704 2.2L11.3088 2.25459M13 5.5L11.963 4L11.3088 2.25459" stroke="#292A2E" stroke-width="0.3"/>
<path d="M13 25H13.7407V22.6V22.3L14.6296 21.7M13 19V17.5M14.6296 21.1L13.7407 21.7V21.4V19L16.7037 17.8L18.7778 16L20.1111 12.85M14.6296 21.1L15.2222 19.75L15.5185 19.9L15.8148 19.45L16.1111 19.6L16.4074 19.3L16.7037 19.45L17 19.15L17.2963 19.3L17.5926 19L17.8889 19.15L18.1852 18.85L18.4815 19L18.7778 18.7L19.0741 18.85L19.3704 18.55L19.6667 18.7L19.963 18.4L20.2593 18.55L20.5556 18.25L20.8519 18.4L21.1482 18.1L21.4445 18.25L21.7408 17.95L22.037 18.1L22.3333 17.8L22.6296 17.95L22.9259 17.65L23.2222 17.8L23.5185 17.5L23.8148 17.65L24.1111 17.35L24.4074 17.5H24.7037L25 17.8L24.7037 18.1L25 18.4L24.7037 18.7L25 19L24.7037 19.15V19.45H24.4074L24.1111 19.75L23.8148 19.6L23.5185 19.9L23.2222 19.75L22.9259 20.05L22.6296 19.9L22.3333 20.2L22.037 20.05L21.7408 20.35L21.4445 20.2L21.1482 20.5L20.8519 20.35L20.5556 20.65L20.2593 20.5L19.963 20.8L19.6667 20.65L19.3704 20.95L19.0741 20.8L18.7778 21.1L18.4815 20.95L18.1852 21.25L17.8889 21.1L17.5926 21.4L17.2963 21.25L17 21.55L16.7037 21.4L16.4074 21.7L16.1111 21.55L15.8148 21.85L15.5185 21.7L15.2222 22L14.6296 21.7M14.6296 21.1V21.7M20.5555 9.25V10V10.9L20.1111 12.85M20.5555 9.25V8.5L19.8148 7L19.2963 6.175M20.5555 9.25L16.1111 13.3L13 14.5M20.1111 12.85L16.4074 16L13 17.5M16.8518 4L18.7778 5.35L19.2963 6.175M16.8518 4L15.8148 3.25L14.6912 2.25459M16.8518 4L14.9259 7L13 8.5M13 17.5V14.5M13 14.5V11.5M13 11.5V8.5M13 11.5L15.8148 10.3L19.2963 6.175M13 8.5V5.5M13 5.5V1H13.1481L14.6296 2.2L14.6912 2.25459M13 5.5L14.037 4L14.6912 2.25459" stroke="#292A2E" stroke-width="0.3"/>
</svg>
