<svg width="25" height="26" viewBox="0 0 25 26" fill="none" xmlns="http://www.w3.org/2000/svg">
<path d="M12.6016 25H10.8016L11.4016 24.3962L11.7016 20.7736L11.2516 19.1132L10.0516 18.0566M10.0516 18.0566L10.5016 17.9057L11.4016 18.5094L12.0016 17.1509L12.3016 18.2075H12.6016M10.0516 18.0566L10.2016 18.8113L10.0516 19.1132H9.60156L8.40156 19.4151L7.20156 18.8113V17.4528L6.45156 18.2075L6.00156 17.9057L5.10156 18.2075L4.95156 18.5094H4.35156L3.90156 18.2075V17.4528L4.05156 17.1509L3.60156 16.5472V16.0943H3.90156V15.4906L3.30156 15.0377L2.25156 15.4906H1.35156L0.601562 15.0377V14.283V13.6792L1.20156 13.3774V12.7736L0.601562 12.4717V11.8679L1.20156 11.566V11.2642H0.901563V10.8113L1.35156 10.6604L1.80156 10.9623L2.10156 10.3585L1.65156 10.0566L0.901563 10.3585L1.20156 9.45283H1.80156L2.25156 9.15094L3.00156 8.54717L2.55156 8.09434L2.70156 7.49057L3.60156 7.79245L3.90156 8.09434H4.50156L4.05156 7.49057V7.03774L4.50156 6.58491H5.25156L5.70156 6.73585L6.00156 6.13208L5.70156 5.5283V5.07547L5.25156 4.77358L6.00156 4.62264L5.25156 4.16981L5.70156 3.86792H6.15156L5.85156 3.26415L6.00156 2.81132L6.75156 2.66038L7.35156 3.26415V1.90566L7.65156 1.30189H8.85156V2.0566H9.30156L9.60156 2.66038L10.0516 2.0566L9.60156 1.60377L10.2016 1L10.8016 1.90566L11.4016 1.60377L11.1016 1H12.0016L12.3016 1.30189H12.6016" stroke="#292A2E" stroke-width="0.32"/>
<path d="M12.6016 25H14.4016L13.8016 24.3962L13.5016 20.7736L13.9516 19.1132L15.1516 18.0566M15.1516 18.0566L14.7016 17.9057L13.8016 18.5094L13.2016 17.1509L12.9016 18.2075H12.6016M15.1516 18.0566L15.0016 18.8113L15.1516 19.1132H15.6016L16.8016 19.4151L18.0016 18.8113V17.4528L18.7516 18.2075L19.2016 17.9057L20.1016 18.2075L20.2516 18.5094H20.8516L21.3016 18.2075V17.4528L21.1516 17.1509L21.6016 16.5472V16.0943H21.3016V15.4906L21.9016 15.0377L22.9516 15.4906H23.8516L24.6016 15.0377V14.283V13.6792L24.0016 13.3774V12.7736L24.6016 12.4717V11.8679L24.0016 11.566V11.2642H24.3016V10.8113L23.8516 10.6604L23.4016 10.9623L23.1016 10.3585L23.5516 10.0566L24.3016 10.3585L24.0016 9.45283H23.4016L22.9516 9.15094L22.2016 8.54717L22.6516 8.09434L22.5016 7.49057L21.6016 7.79245L21.3016 8.09434H20.7016L21.1516 7.49057V7.03774L20.7016 6.58491H19.9516L19.5016 6.73585L19.2016 6.13208L19.5016 5.5283V5.07547L19.9516 4.77358L19.2016 4.62264L19.9516 4.16981L19.5016 3.86792H19.0516L19.3516 3.26415L19.2016 2.81132L18.4516 2.66038L17.8516 3.26415V1.90566L17.5516 1.30189H16.3516V2.0566H15.9016L15.6016 2.66038L15.1516 2.0566L15.6016 1.60377L15.0016 1L14.4016 1.90566L13.8016 1.60377L14.1016 1H13.2016L12.9016 1.30189H12.6016" stroke="#292A2E" stroke-width="0.32"/>
</svg>
